# xmcd
#
# Track frame offsets:
#	150
#	18300
#	32042
#	44180
#	61802
#	78322
#	90622
#	104207
#	116230
#	130555
#
# Disc length: 1958 seconds
#
# Revision: 9
# Processed by: cddbd v1.5.2PL0 Copyright (c) Steve Scherf et al.
# Submitted via: EZCDAudioConverter 6.0.7.1
#
DISCID=8507a40a
DTITLE=Clint Black - No Time To Kill
DYEAR=1993
DGENRE=Country
TTITLE0=No Time To Kill
TTITLE1=Thinkin' Again
TTITLE2=A Good Run Of Bad Luck
TTITLE3=State Of Mind
TTITLE4=A Bad Goodbye (With Wynonna)
TTITLE5=Back To Back
TTITLE6=Half The Man
TTITLE7=I'll Take Texas
TTITLE8=Happiness Alone
TTITLE9=Tuckered Out
EXTD=
EXTT0=
EXTT1=
EXTT2=
EXTT3=
EXTT4=
EXTT5=
EXTT6=
EXTT7=
EXTT8=
EXTT9=
PLAYORDER=
